<svg width="21" height="20" viewBox="0 0 21 20" fill="none" xmlns="http://www.w3.org/2000/svg">
<path d="M1.7911 12.1863C1.8205 12.2917 1.87159 12.3905 1.94142 12.4771C2.01125 12.5636 2.09845 12.6362 2.19797 12.6906L3.86922 13.6078V15.4347C3.86922 15.6551 3.96141 15.8664 4.1255 16.0222C4.2896 16.178 4.51216 16.2655 4.74422 16.2655H6.66835L7.63435 17.8524C7.71181 17.9781 7.82242 18.0825 7.95528 18.1554C8.08814 18.2282 8.23868 18.267 8.3921 18.2678C8.54435 18.2678 8.69572 18.2296 8.83047 18.1556L10.5 17.2393L12.1712 18.1565C12.3721 18.2665 12.6108 18.2963 12.8349 18.2395C13.0589 18.1826 13.2501 18.0437 13.3665 17.8532L14.3316 16.2664H16.2557C16.4878 16.2664 16.7103 16.1788 16.8744 16.023C17.0385 15.8672 17.1307 15.6559 17.1307 15.4356V13.6086L18.802 12.6914C18.9015 12.6368 18.9888 12.5641 19.0587 12.4774C19.1286 12.3908 19.1799 12.2919 19.2096 12.1864C19.2392 12.0809 19.2467 11.9709 19.2316 11.8627C19.2164 11.7545 19.179 11.6502 19.1213 11.5557L18.1562 9.96968L19.1222 8.3845C19.2383 8.19378 19.2699 7.96709 19.21 7.75427C19.1501 7.54145 19.0037 7.35993 18.8028 7.24962L17.1316 6.33241V4.50463C17.1316 4.28428 17.0394 4.07296 16.8753 3.91716C16.7112 3.76135 16.4887 3.67382 16.2566 3.67382H14.3325L13.3673 2.08781C13.2508 1.89748 13.06 1.7584 12.8362 1.70065C12.7252 1.67208 12.6094 1.66472 12.4954 1.67898C12.3814 1.69324 12.2715 1.72885 12.1721 1.78373L10.5 2.70011L8.8296 1.7829C8.62873 1.67266 8.38998 1.64268 8.16585 1.69955C7.94171 1.75641 7.75053 1.89547 7.63435 2.08614L6.66835 3.67299H4.74422C4.51216 3.67299 4.2896 3.76052 4.1255 3.91633C3.96141 4.07213 3.86922 4.28345 3.86922 4.5038V6.33074L2.19797 7.24796C1.99721 7.35875 1.85088 7.54056 1.79102 7.75359C1.73116 7.96661 1.76265 8.19348 1.8786 8.3845L2.8446 9.96968L1.8786 11.5549C1.76309 11.7462 1.73165 11.9731 1.7911 12.1863ZM10.5 10.8005C7.45497 10.8005 6.99997 9.2394 6.99997 8.30807C6.99997 7.23882 7.90035 6.16209 9.62497 5.88626V4.9948H11.375V5.91617C12.8922 6.2568 13.475 7.45566 13.475 8.30807H12.6L11.725 8.32302C11.7127 8.00731 11.5368 7.47726 10.5 7.47726C9.36335 7.47726 8.74997 7.90512 8.74997 8.30807C8.74997 8.61879 8.74997 9.13887 10.5 9.13887C13.545 9.13887 14 10.7 14 11.6313C14 12.7005 13.0996 13.7773 11.375 14.0531V14.9545H9.62497V14.0573C7.57835 13.7524 6.99997 12.3931 6.99997 11.6313H8.74997C8.7596 11.7501 8.8891 12.4621 10.5 12.4621C11.7075 12.4621 12.25 11.9761 12.25 11.6313C12.25 11.3613 12.25 10.8005 10.5 10.8005Z" fill="#00EC42"/>
</svg>
