<svg width="167" height="54" viewBox="0 0 167 54" fill="none" xmlns="http://www.w3.org/2000/svg">
<path d="M0 27C0 12.0883 12.0883 0 27 0H140C154.912 0 167 12.0883 167 27C167 41.9117 154.912 54 140 54H27C12.0883 54 0 41.9117 0 27Z" fill="#D1D1D1"/>
<path d="M41.9523 39C42.6396 39 43.1265 38.4081 43.4797 37.4916L49.7327 21.1575C49.9045 20.7184 50 20.327 50 20.0024C50 19.3819 49.6181 19 48.9976 19C48.673 19 48.2816 19.0955 47.8425 19.2673L31.4224 25.5585C30.6205 25.864 30 26.3508 30 27.0477C30 27.926 30.6683 28.222 31.5847 28.4988L36.7399 30.0644C37.3508 30.2554 37.6945 30.2363 38.105 29.8544L48.5776 20.0692C48.7017 19.9547 48.8449 19.9737 48.9403 20.0597C49.0358 20.1551 49.0453 20.2983 48.9308 20.4224L39.1838 30.9332C38.8115 31.3246 38.7828 31.6492 38.9642 32.2888L40.4821 37.3294C40.7685 38.2936 41.0644 39 41.9523 39Z" fill="#1F1F1F"/>
<path d="M61.5239 25.7959C61.5239 27.5903 62.6958 28.7988 65.0151 29.3604L67.3101 29.9219C68.6528 30.2637 69.1411 30.7153 69.1411 31.5332C69.1411 32.5708 68.1646 33.23 66.5776 33.23C64.9663 33.23 64.0142 32.5464 63.8066 31.3135H61.1943C61.4019 33.6694 63.416 35.2441 66.4556 35.2441C69.605 35.2441 71.79 33.6328 71.79 31.2891C71.79 29.397 70.8135 28.4204 68.2256 27.7979L66.0649 27.2974C64.7344 26.9678 64.0996 26.4307 64.0996 25.6372C64.0996 24.624 65.0518 23.9282 66.48 23.9282C67.957 23.9282 68.897 24.6484 69.019 25.8081H71.4971C71.4116 23.5254 69.4097 21.9263 66.5532 21.9263C63.5503 21.9263 61.5239 23.501 61.5239 25.7959Z" fill="#1F1F1F"/>
<path d="M73.4263 35H76.063V22.1582H73.4263V35ZM74.7446 20.2783C75.5991 20.2783 76.2827 19.6069 76.2827 18.7769C76.2827 17.9346 75.5991 17.2632 74.7446 17.2632C73.9023 17.2632 73.2188 17.9346 73.2188 18.7769C73.2188 19.6069 73.9023 20.2783 74.7446 20.2783Z" fill="#1F1F1F"/>
<path d="M83.7295 32.8638C81.7031 32.8638 80.3848 31.228 80.3848 28.5425C80.3848 25.8691 81.7031 24.1724 83.7295 24.1724C85.7925 24.1724 87.1475 25.9058 87.1475 28.5425C87.1475 31.1914 85.7925 32.8638 83.7295 32.8638ZM83.7539 39.834C87.416 39.834 89.7842 37.832 89.7842 34.7681V22.1582H87.2207V24.3555H87.1719C86.3906 22.8662 84.9014 21.9507 83.0825 21.9507C79.7866 21.9507 77.687 24.4897 77.687 28.5303C77.687 32.5342 79.7988 35.0488 83.0215 35.0488C84.8525 35.0488 86.3662 34.1333 87.0864 32.7417H87.1353V34.8535C87.1353 36.6113 85.9146 37.7832 83.8516 37.7832C82.3501 37.7832 81.1782 37.0752 80.7998 36.001H78.1509C78.4805 38.2227 80.7266 39.834 83.7539 39.834Z" fill="#1F1F1F"/>
<path d="M91.8965 35H94.5332V27.5171C94.5332 25.5273 95.7295 24.209 97.585 24.209C99.416 24.209 100.319 25.271 100.319 27.1997V35H102.968V26.687C102.968 23.7451 101.345 21.9385 98.5127 21.9385C96.5352 21.9385 95.168 22.8418 94.4722 24.3066H94.4111V22.1582H91.8965V35Z" fill="#1F1F1F"/>
<path d="M120.608 22.1582H117.972V29.6411C117.972 31.6431 116.824 32.9614 114.92 32.9614C113.101 32.9614 112.173 31.9116 112.173 29.9585V22.1582H109.537V30.4712C109.537 33.4131 111.246 35.2319 114.041 35.2319C116.006 35.2319 117.312 34.3652 118.021 32.8271H118.082V35H120.608V22.1582Z" fill="#1F1F1F"/>
<path d="M129.41 21.9507C127.555 21.9507 126.078 22.8906 125.321 24.3677H125.272V22.1582H122.721V39.248H125.357V32.8882H125.418C126.151 34.3164 127.616 35.2197 129.459 35.2197C132.682 35.2197 134.818 32.644 134.818 28.5791C134.818 24.5142 132.669 21.9507 129.41 21.9507ZM128.714 32.9858C126.688 32.9858 125.345 31.2524 125.345 28.5791C125.345 25.9302 126.7 24.1724 128.714 24.1724C130.802 24.1724 132.108 25.8936 132.108 28.5791C132.108 31.2769 130.802 32.9858 128.714 32.9858Z" fill="#1F1F1F"/>
</svg>
