<svg width="108" height="31" viewBox="0 0 108 31" fill="none" xmlns="http://www.w3.org/2000/svg">
<path d="M0 15.5C0 6.93959 6.93959 0 15.5 0H92.5C101.06 0 108 6.93959 108 15.5C108 24.0604 101.06 31 92.5 31H15.5C6.93959 31 0 24.0604 0 15.5Z" fill="#007AFF" fill-opacity="0.15"/>
<path d="M33.4444 14.1094C33.4444 15.2578 34.1944 16.0312 35.6787 16.3906L37.1475 16.75C38.0069 16.9688 38.3194 17.2578 38.3194 17.7812C38.3194 18.4453 37.6944 18.8672 36.6787 18.8672C35.6475 18.8672 35.0381 18.4297 34.9053 17.6406H33.2334C33.3662 19.1484 34.6553 20.1562 36.6006 20.1562C38.6162 20.1562 40.0147 19.125 40.0147 17.625C40.0147 16.4141 39.3897 15.7891 37.7334 15.3906L36.3506 15.0703C35.4991 14.8594 35.0928 14.5156 35.0928 14.0078C35.0928 13.3594 35.7022 12.9141 36.6162 12.9141C37.5616 12.9141 38.1631 13.375 38.2412 14.1172H39.8272C39.7725 12.6562 38.4912 11.6328 36.6631 11.6328C34.7412 11.6328 33.4444 12.6406 33.4444 14.1094Z" fill="#007AFF"/>
<path d="M41.0619 20H42.7494V11.7812H41.0619V20ZM41.9056 10.5781C42.4525 10.5781 42.89 10.1484 42.89 9.61719C42.89 9.07812 42.4525 8.64844 41.9056 8.64844C41.3666 8.64844 40.9291 9.07812 40.9291 9.61719C40.9291 10.1484 41.3666 10.5781 41.9056 10.5781Z" fill="#007AFF"/>
<path d="M47.6559 18.6328C46.3591 18.6328 45.5153 17.5859 45.5153 15.8672C45.5153 14.1562 46.3591 13.0703 47.6559 13.0703C48.9762 13.0703 49.8434 14.1797 49.8434 15.8672C49.8434 17.5625 48.9762 18.6328 47.6559 18.6328ZM47.6716 23.0938C50.0153 23.0938 51.5309 21.8125 51.5309 19.8516V11.7812H49.8903V13.1875H49.8591C49.3591 12.2344 48.4059 11.6484 47.2419 11.6484C45.1325 11.6484 43.7887 13.2734 43.7887 15.8594C43.7887 18.4219 45.1403 20.0312 47.2028 20.0312C48.3747 20.0312 49.3434 19.4453 49.8044 18.5547H49.8356V19.9062C49.8356 21.0312 49.0544 21.7812 47.7341 21.7812C46.7731 21.7812 46.0231 21.3281 45.7809 20.6406H44.0856C44.2966 22.0625 45.7341 23.0938 47.6716 23.0938Z" fill="#007AFF"/>
<path d="M52.8828 20H54.5703V15.2109C54.5703 13.9375 55.3359 13.0938 56.5234 13.0938C57.6953 13.0938 58.2734 13.7734 58.2734 15.0078V20H59.9688V14.6797C59.9688 12.7969 58.9297 11.6406 57.1172 11.6406C55.8516 11.6406 54.9766 12.2188 54.5312 13.1562H54.4922V11.7812H52.8828V20Z" fill="#007AFF"/>
<path d="M64.2663 20H65.9538V11.7812H64.2663V20ZM65.11 10.5781C65.6569 10.5781 66.0944 10.1484 66.0944 9.61719C66.0944 9.07812 65.6569 8.64844 65.11 8.64844C64.5709 8.64844 64.1334 9.07812 64.1334 9.61719C64.1334 10.1484 64.5709 10.5781 65.11 10.5781Z" fill="#007AFF"/>
<path d="M67.3603 20H69.0478V15.2109C69.0478 13.9375 69.8134 13.0938 71.0009 13.0938C72.1728 13.0938 72.7509 13.7734 72.7509 15.0078V20H74.4463V14.6797C74.4463 12.7969 73.4072 11.6406 71.5947 11.6406C70.3291 11.6406 69.4541 12.2188 69.0088 13.1562H68.9697V11.7812H67.3603V20Z" fill="#007AFF"/>
</svg>
