<svg width="108" height="31" viewBox="0 0 108 31" fill="none" xmlns="http://www.w3.org/2000/svg">
<path d="M0 15.5C0 6.93959 6.93959 0 15.5 0H92.5C101.06 0 108 6.93959 108 15.5C108 24.0604 101.06 31 92.5 31H15.5C6.93959 31 0 24.0604 0 15.5Z" fill="#007AFF" fill-opacity="0.15"/>
<path d="M42.8081 20.1406C44.8941 20.1406 46.2378 18.5 46.2378 15.8906C46.2378 13.2891 44.8862 11.6484 42.8159 11.6484C41.6519 11.6484 40.7144 12.2266 40.2222 13.1797H40.1831V8.72656H38.4956V20H40.1362V18.6016H40.1675C40.6753 19.5547 41.605 20.1406 42.8081 20.1406ZM42.355 13.0703C43.6831 13.0703 44.5034 14.1641 44.5034 15.8906C44.5034 17.6328 43.6831 18.7109 42.355 18.7109C41.0737 18.7109 40.1753 17.6016 40.1753 15.8906C40.1753 14.1953 41.0737 13.0703 42.355 13.0703Z" fill="#007AFF"/>
<path d="M50.1131 18.8047C49.2069 18.8047 48.6131 18.3359 48.6131 17.6172C48.6131 16.9141 49.1834 16.4688 50.1912 16.3984L52.2147 16.2734V16.9219C52.2147 17.9922 51.2928 18.8047 50.1131 18.8047ZM49.6444 20.1406C50.7225 20.1406 51.7616 19.5625 52.2381 18.6484H52.2772V20H53.8944V14.3359C53.8944 12.6875 52.6209 11.6328 50.6287 11.6328C48.5975 11.6328 47.3319 12.7266 47.2381 14.2109H48.8319C48.9803 13.4766 49.5897 13.0078 50.5662 13.0078C51.5975 13.0078 52.2147 13.5547 52.2147 14.4688V15.1016L49.9647 15.2344C48.0116 15.3438 46.91 16.2266 46.91 17.6641C46.91 19.1406 48.035 20.1406 49.6444 20.1406Z" fill="#007AFF"/>
<path d="M62.2697 14.6094C62.1213 12.9922 60.8322 11.6328 58.715 11.6328C56.3791 11.6328 54.8478 13.2812 54.8478 15.8906C54.8478 18.5469 56.3791 20.1562 58.7306 20.1562C60.7072 20.1562 62.1056 18.9688 62.2853 17.2188H60.6603C60.465 18.1719 59.7853 18.7422 58.7463 18.7422C57.4338 18.7422 56.5666 17.6953 56.5666 15.8906C56.5666 14.125 57.4259 13.0391 58.7306 13.0391C59.8322 13.0391 60.4884 13.7344 60.6603 14.6094H62.2697Z" fill="#007AFF"/>
<path d="M64.9263 15.3047H64.9106V8.72656H63.2231V20H64.9106V17.0469L65.6138 16.3516L68.4028 20H70.3638L66.8247 15.3203L70.2309 11.7812H68.2466L64.9263 15.3047Z" fill="#007AFF"/>
</svg>
