<svg width="167" height="54" viewBox="0 0 167 54" fill="none" xmlns="http://www.w3.org/2000/svg">
<path d="M0 27C0 12.0883 12.0883 0 27 0H140C154.912 0 167 12.0883 167 27C167 41.9117 154.912 54 140 54H27C12.0883 54 0 41.9117 0 27Z" fill="#E6E6E6"/>
<path d="M53.9523 38C54.6396 38 55.1265 37.4081 55.4797 36.4916L61.7327 20.1575C61.9045 19.7184 62 19.327 62 19.0024C62 18.3819 61.6181 18 60.9976 18C60.673 18 60.2816 18.0955 59.8425 18.2673L43.4224 24.5585C42.6205 24.864 42 25.3508 42 26.0477C42 26.926 42.6683 27.222 43.5847 27.4988L48.7399 29.0644C49.3508 29.2554 49.6945 29.2363 50.105 28.8544L60.5776 19.0692C60.7017 18.9547 60.8449 18.9737 60.9403 19.0597C61.0358 19.1551 61.0453 19.2983 60.9308 19.4224L51.1838 29.9332C50.8115 30.3246 50.7828 30.6492 50.9642 31.2888L52.4821 36.3294C52.7685 37.2936 53.0644 38 53.9523 38Z" fill="#1F1F1F"/>
<path d="M70.4795 36H73.1162V18.3853H70.4795V36Z" fill="#1F1F1F"/>
<path d="M80.8438 36.2441C84.5181 36.2441 86.9351 33.7173 86.9351 29.5791C86.9351 25.4531 84.5059 22.9263 80.8438 22.9263C77.1816 22.9263 74.7524 25.4531 74.7524 29.5791C74.7524 33.7173 77.1694 36.2441 80.8438 36.2441ZM80.8438 34.0713C78.7808 34.0713 77.438 32.4355 77.438 29.5791C77.438 26.7349 78.7808 25.0991 80.8438 25.0991C82.9067 25.0991 84.2495 26.7349 84.2495 29.5791C84.2495 32.4355 82.9189 34.0713 80.8438 34.0713Z" fill="#1F1F1F"/>
<path d="M93.9424 33.8638C91.916 33.8638 90.5977 32.228 90.5977 29.5425C90.5977 26.8691 91.916 25.1724 93.9424 25.1724C96.0054 25.1724 97.3604 26.9058 97.3604 29.5425C97.3604 32.1914 96.0054 33.8638 93.9424 33.8638ZM93.9668 40.834C97.6289 40.834 99.9971 38.832 99.9971 35.7681V23.1582H97.4336V25.3555H97.3848C96.6035 23.8662 95.1143 22.9507 93.2954 22.9507C89.9995 22.9507 87.8999 25.4897 87.8999 29.5303C87.8999 33.5342 90.0117 36.0488 93.2344 36.0488C95.0654 36.0488 96.5791 35.1333 97.2993 33.7417H97.3481V35.8535C97.3481 37.6113 96.1274 38.7832 94.0645 38.7832C92.563 38.7832 91.3911 38.0752 91.0127 37.001H88.3638C88.6934 39.2227 90.9395 40.834 93.9668 40.834Z" fill="#1F1F1F"/>
<path d="M106.773 36H109.41V23.1582H106.773V36ZM108.091 21.2783C108.946 21.2783 109.629 20.6069 109.629 19.7769C109.629 18.9346 108.946 18.2632 108.091 18.2632C107.249 18.2632 106.565 18.9346 106.565 19.7769C106.565 20.6069 107.249 21.2783 108.091 21.2783Z" fill="#1F1F1F"/>
<path d="M111.607 36H114.244V28.5171C114.244 26.5273 115.44 25.209 117.296 25.209C119.127 25.209 120.03 26.271 120.03 28.1997V36H122.679V27.687C122.679 24.7451 121.056 22.9385 118.224 22.9385C116.246 22.9385 114.879 23.8418 114.183 25.3066H114.122V23.1582H111.607V36Z" fill="#1F1F1F"/>
</svg>
