<svg width="16" height="16" viewBox="0 0 16 16" fill="none" xmlns="http://www.w3.org/2000/svg">
<g clip-path="url(#clip0_142_200)">
<path d="M15.5655 0.174997C15.8811 0.393747 16.0468 0.771872 15.9874 1.15L13.9874 14.15C13.9405 14.4531 13.7561 14.7187 13.4874 14.8687C13.2186 15.0187 12.8968 15.0375 12.6124 14.9187L8.66552 13.2781L7.41239 15.6062C7.24989 15.9094 6.90302 16.0625 6.56864 15.9781C6.23427 15.8937 5.99989 15.5937 5.99989 15.25V12.25C5.99989 12.0844 6.05614 11.9219 6.15927 11.7906L11.3249 5.14687C11.403 4.925 11.1218 4.7 10.9186 4.88437L5.32489 9.94375L4.32489 10.8469C4.03739 11.1062 3.62802 11.1781 3.26864 11.0281L0.612393 9.92187C0.262393 9.775 0.0248925 9.44375 0.00301752 9.0625C-0.0188575 8.68125 0.174893 8.32187 0.506143 8.13125L14.5061 0.131247C14.8405 -0.0593776 15.253 -0.0406276 15.5686 0.174997H15.5655Z" fill="#13C1E8"/>
</g>
<defs>
<clipPath id="clip0_142_200">
<rect width="16" height="16" fill="white"/>
</clipPath>
</defs>
</svg>
